<svg width="403" height="24" viewBox="0 0 403 24" fill="none" xmlns="http://www.w3.org/2000/svg">
<path d="M22.7524 0.855999V23H19.8404V6.488L12.4804 23H10.4324L3.04038 6.456V23H0.128383V0.855999H3.26438L11.4564 19.16L19.6484 0.855999H22.7524ZM43.4349 18.04H33.7069L31.9149 23H28.8429L36.9069 0.823999H40.2669L48.2989 23H45.2269L43.4349 18.04ZM42.6029 15.672L38.5709 4.408L34.5389 15.672H42.6029ZM66.1174 23L60.8054 13.88H57.2854V23H54.3734V0.695999H61.5734C63.2587 0.695999 64.6774 0.983999 65.8294 1.56C67.0027 2.136 67.8774 2.91467 68.4534 3.896C69.0294 4.87733 69.3174 5.99733 69.3174 7.256C69.3174 8.792 68.8694 10.1467 67.9734 11.32C67.0987 12.4933 65.776 13.272 64.0054 13.656L69.6054 23H66.1174ZM57.2854 11.544H61.5734C63.152 11.544 64.336 11.16 65.1254 10.392C65.9147 9.60267 66.3094 8.55733 66.3094 7.256C66.3094 5.93333 65.9147 4.90933 65.1254 4.184C64.3574 3.45867 63.1734 3.096 61.5734 3.096H57.2854V11.544ZM75.3141 11.832C75.3141 9.656 75.8048 7.704 76.7861 5.976C77.7675 4.22667 79.1008 2.86133 80.7861 1.88C82.4928 0.898666 84.3808 0.407999 86.4501 0.407999C88.8821 0.407999 91.0048 0.994666 92.8181 2.168C94.6315 3.34133 95.9541 5.00533 96.7861 7.16H93.2981C92.6795 5.816 91.7835 4.78133 90.6101 4.056C89.4581 3.33067 88.0715 2.968 86.4501 2.968C84.8928 2.968 83.4955 3.33067 82.2581 4.056C81.0208 4.78133 80.0501 5.816 79.3461 7.16C78.6421 8.48267 78.2901 10.04 78.2901 11.832C78.2901 13.6027 78.6421 15.16 79.3461 16.504C80.0501 17.8267 81.0208 18.8507 82.2581 19.576C83.4955 20.3013 84.8928 20.664 86.4501 20.664C88.0715 20.664 89.4581 20.312 90.6101 19.608C91.7835 18.8827 92.6795 17.848 93.2981 16.504H96.7861C95.9541 18.6373 94.6315 20.2907 92.8181 21.464C91.0048 22.616 88.8821 23.192 86.4501 23.192C84.3808 23.192 82.4928 22.712 80.7861 21.752C79.1008 20.7707 77.7675 19.416 76.7861 17.688C75.8048 15.96 75.3141 14.008 75.3141 11.832ZM125.94 11.512C126.751 11.64 127.487 11.9707 128.148 12.504C128.831 13.0373 129.364 13.6987 129.748 14.488C130.153 15.2773 130.356 16.12 130.356 17.016C130.356 18.1467 130.068 19.1707 129.492 20.088C128.916 20.984 128.073 21.6987 126.964 22.232C125.876 22.744 124.585 23 123.092 23H114.772V0.695999H122.772C124.287 0.695999 125.577 0.951999 126.644 1.464C127.711 1.95467 128.511 2.62667 129.044 3.48C129.577 4.33333 129.844 5.29333 129.844 6.36C129.844 7.68267 129.481 8.78133 128.756 9.656C128.052 10.5093 127.113 11.128 125.94 11.512ZM117.684 10.328H122.58C123.945 10.328 125.001 10.008 125.748 9.368C126.495 8.728 126.868 7.84267 126.868 6.712C126.868 5.58133 126.495 4.696 125.748 4.056C125.001 3.416 123.924 3.096 122.516 3.096H117.684V10.328ZM122.836 20.6C124.287 20.6 125.417 20.2587 126.228 19.576C127.039 18.8933 127.444 17.944 127.444 16.728C127.444 15.4907 127.017 14.52 126.164 13.816C125.311 13.0907 124.169 12.728 122.74 12.728H117.684V20.6H122.836ZM139.869 3.064V10.52H147.997V12.92H139.869V20.6H148.957V23H136.957V0.664H148.957V3.064H139.869ZM167.667 23L162.355 13.88H158.835V23H155.923V0.695999H163.123C164.809 0.695999 166.227 0.983999 167.379 1.56C168.553 2.136 169.427 2.91467 170.003 3.896C170.579 4.87733 170.867 5.99733 170.867 7.256C170.867 8.792 170.419 10.1467 169.523 11.32C168.649 12.4933 167.326 13.272 165.555 13.656L171.155 23H167.667ZM158.835 11.544H163.123C164.702 11.544 165.886 11.16 166.675 10.392C167.465 9.60267 167.859 8.55733 167.859 7.256C167.859 5.93333 167.465 4.90933 166.675 4.184C165.907 3.45867 164.723 3.096 163.123 3.096H158.835V11.544ZM180.864 20.632H188.672V23H177.952V0.695999H180.864V20.632ZM197.237 0.695999V23H194.325V0.695999H197.237ZM222.296 23H219.384L207.672 5.24V23H204.76V0.664H207.672L219.384 18.392V0.664H222.296V23ZM232.732 3.064V10.52H240.86V12.92H232.732V20.6H241.82V23H229.82V0.664H241.82V3.064H232.732ZM260.53 23L255.218 13.88H251.698V23H248.786V0.695999H255.986C257.671 0.695999 259.09 0.983999 260.242 1.56C261.415 2.136 262.29 2.91467 262.866 3.896C263.442 4.87733 263.73 5.99733 263.73 7.256C263.73 8.792 263.282 10.1467 262.386 11.32C261.511 12.4933 260.189 13.272 258.418 13.656L264.018 23H260.53ZM251.698 11.544H255.986C257.565 11.544 258.749 11.16 259.538 10.392C260.327 9.60267 260.722 8.55733 260.722 7.256C260.722 5.93333 260.327 4.90933 259.538 4.184C258.77 3.45867 257.586 3.096 255.986 3.096H251.698V11.544ZM288.85 0.695999C291.282 0.695999 293.383 1.15467 295.154 2.072C296.946 2.968 298.311 4.25867 299.25 5.944C300.21 7.62933 300.69 9.61333 300.69 11.896C300.69 14.1787 300.21 16.1627 299.25 17.848C298.311 19.512 296.946 20.792 295.154 21.688C293.383 22.5627 291.282 23 288.85 23H281.906V0.695999H288.85ZM288.85 20.6C291.73 20.6 293.927 19.8427 295.442 18.328C296.957 16.792 297.714 14.648 297.714 11.896C297.714 9.12267 296.946 6.95733 295.41 5.4C293.895 3.84267 291.709 3.064 288.85 3.064H284.818V20.6H288.85ZM310.003 3.064V10.52H318.131V12.92H310.003V20.6H319.091V23H307.091V0.664H319.091V3.064H310.003ZM333.129 23.224C331.657 23.224 330.334 22.968 329.161 22.456C328.009 21.9227 327.102 21.1973 326.441 20.28C325.78 19.3413 325.438 18.264 325.417 17.048H328.521C328.628 18.0933 329.054 18.9787 329.801 19.704C330.569 20.408 331.678 20.76 333.129 20.76C334.516 20.76 335.604 20.4187 336.393 19.736C337.204 19.032 337.609 18.136 337.609 17.048C337.609 16.1947 337.374 15.5013 336.905 14.968C336.436 14.4347 335.849 14.0293 335.145 13.752C334.441 13.4747 333.492 13.176 332.297 12.856C330.825 12.472 329.641 12.088 328.745 11.704C327.87 11.32 327.113 10.7227 326.473 9.912C325.854 9.08 325.545 7.97067 325.545 6.584C325.545 5.368 325.854 4.29067 326.473 3.352C327.092 2.41333 327.956 1.688 329.065 1.176C330.196 0.663999 331.486 0.407999 332.937 0.407999C335.028 0.407999 336.734 0.930666 338.057 1.976C339.401 3.02133 340.158 4.408 340.329 6.136H337.129C337.022 5.28267 336.574 4.536 335.785 3.896C334.996 3.23467 333.95 2.904 332.649 2.904C331.433 2.904 330.441 3.224 329.673 3.864C328.905 4.48267 328.521 5.35733 328.521 6.488C328.521 7.29867 328.745 7.96 329.193 8.472C329.662 8.984 330.228 9.37867 330.889 9.656C331.572 9.912 332.521 10.2107 333.737 10.552C335.209 10.9573 336.393 11.3627 337.289 11.768C338.185 12.152 338.953 12.76 339.593 13.592C340.233 14.4027 340.553 15.512 340.553 16.92C340.553 18.008 340.265 19.032 339.689 19.992C339.113 20.952 338.26 21.7307 337.129 22.328C335.998 22.9253 334.665 23.224 333.129 23.224ZM350.31 0.695999V23H347.398V0.695999H350.31ZM374.729 7.16C374.111 5.85867 373.215 4.856 372.041 4.152C370.868 3.42667 369.503 3.064 367.945 3.064C366.388 3.064 364.98 3.42667 363.721 4.152C362.484 4.856 361.503 5.88 360.777 7.224C360.073 8.54667 359.721 10.0827 359.721 11.832C359.721 13.5813 360.073 15.1173 360.777 16.44C361.503 17.7627 362.484 18.7867 363.721 19.512C364.98 20.216 366.388 20.568 367.945 20.568C370.121 20.568 371.913 19.9173 373.321 18.616C374.729 17.3147 375.551 15.5547 375.785 13.336H366.889V10.968H378.889V13.208C378.719 15.0427 378.143 16.728 377.161 18.264C376.18 19.7787 374.889 20.984 373.289 21.88C371.689 22.7547 369.908 23.192 367.945 23.192C365.876 23.192 363.988 22.712 362.281 21.752C360.575 20.7707 359.22 19.416 358.217 17.688C357.236 15.96 356.745 14.008 356.745 11.832C356.745 9.656 357.236 7.704 358.217 5.976C359.22 4.22667 360.575 2.872 362.281 1.912C363.988 0.930665 365.876 0.439999 367.945 0.439999C370.313 0.439999 372.404 1.02667 374.217 2.2C376.052 3.37333 377.385 5.02667 378.217 7.16H374.729ZM402.836 23H399.924L388.212 5.24V23H385.3V0.664H388.212L399.924 18.392V0.664H402.836V23Z" fill="black"/>
</svg>
